<svg width="18" height="18" viewBox="0 0 18 18" fill="none" xmlns="http://www.w3.org/2000/svg">
<path d="M3.00001 11.1743C2.44279 10.605 2.02244 9.9163 1.77079 9.16047C1.51914 8.40464 1.44279 7.60145 1.54753 6.81174C1.65227 6.02203 1.93535 5.26652 2.37533 4.60242C2.81531 3.93832 3.40065 3.38305 4.08701 2.97868C4.77337 2.57431 5.54275 2.33143 6.33688 2.26845C7.13101 2.20547 7.92906 2.32403 8.67058 2.61516C9.41211 2.90629 10.0777 3.36235 10.6168 3.94879C11.156 4.53524 11.5546 5.23669 11.7825 6.00001H13.125C13.8491 5.99993 14.5541 6.23276 15.1358 6.6641C15.7174 7.09543 16.1449 7.70241 16.3551 8.39537C16.5653 9.08833 16.547 9.83051 16.303 10.5123C16.059 11.1941 15.6022 11.7793 15 12.1815" stroke="#71717A" stroke-width="1.5" stroke-linecap="round" stroke-linejoin="round"/>
<path d="M9 9V15.75" stroke="#71717A" stroke-width="1.5" stroke-linecap="round" stroke-linejoin="round"/>
<path d="M12 12L9 9L6 12" stroke="#71717A" stroke-width="1.5" stroke-linecap="round" stroke-linejoin="round"/>
</svg>
