<svg xmlns="http://www.w3.org/2000/svg" width="32" height="32" viewBox="0 0 32 32" fill="none">
  <rect width="32" height="32" rx="16" fill="url(#paint0_linear_852_5578)"/>
  <path d="M24.6678 22.2152L17.982 6.05102C17.6049 5.21529 17.0443 4.80762 16.3054 4.80762H15.7143C14.9754 4.80762 14.4149 5.21529 14.0378 6.05102L11.128 13.0936H8.92656C8.26918 13.0987 7.73411 13.6286 7.72902 14.2911V14.3064C7.73411 14.9638 8.26918 15.4988 8.92656 15.5039H10.1088L7.33153 22.2152C7.28058 22.363 7.25 22.5159 7.25 22.6739C7.25 23.051 7.36721 23.3465 7.57614 23.5759C7.78507 23.8052 8.08573 23.9173 8.46283 23.9173C8.71253 23.9122 8.95203 23.8357 9.15077 23.688C9.3648 23.5402 9.51259 23.3262 9.62979 23.0816L12.6873 15.4988H14.8072C15.4646 15.4937 15.9997 14.9638 16.0048 14.3013V14.2707C15.9997 13.6134 15.4646 13.0783 14.8072 13.0732H13.6759L16.0099 7.25875L22.3696 23.0765C22.4868 23.3211 22.6346 23.5351 22.8486 23.6829C23.0473 23.8307 23.2919 23.9071 23.5365 23.9122C23.9136 23.9122 24.2092 23.8001 24.4232 23.5708C24.6373 23.3414 24.7494 23.0459 24.7494 22.6688C24.7545 22.5159 24.729 22.3579 24.6678 22.2152Z" fill="white"/>
  <defs>
    <linearGradient id="paint0_linear_852_5578" x1="27.9294" y1="5.96233" x2="4.12137" y2="25.9943" gradientUnits="userSpaceOnUse">
      <stop stop-color="#B6509E"/>
      <stop offset="1" stop-color="#2EBAC6"/>
    </linearGradient>
  </defs>
</svg>