<svg xmlns="http://www.w3.org/2000/svg" width="25" height="24" viewBox="0 0 25 24" fill="none">
  <path d="M8.5 14C11.8137 14 14.5 11.3137 14.5 8C14.5 4.68629 11.8137 2 8.5 2C5.18629 2 2.5 4.68629 2.5 8C2.5 11.3137 5.18629 14 8.5 14Z" stroke="#52525B" stroke-width="1.33333" stroke-linecap="round" stroke-linejoin="round"/>
  <path d="M18.5898 10.37C19.5352 10.7225 20.3763 11.3076 21.0356 12.0712C21.6949 12.8349 22.1509 13.7525 22.3616 14.7391C22.5723 15.7257 22.5307 16.7495 22.2409 17.7159C21.951 18.6822 21.4222 19.5598 20.7033 20.2676C19.9843 20.9754 19.0986 21.4905 18.1278 21.7653C17.1571 22.04 16.1327 22.0655 15.1495 21.8395C14.1663 21.6134 13.256 21.1431 12.5027 20.472C11.7494 19.8009 11.1775 18.9507 10.8398 18" stroke="#52525B" stroke-width="1.33333" stroke-linecap="round" stroke-linejoin="round"/>
  <path d="M7.5 6H8.5V10" stroke="#52525B" stroke-width="1.33333" stroke-linecap="round" stroke-linejoin="round"/>
  <path d="M17.2098 13.88L17.9098 14.59L15.0898 17.41" stroke="#52525B" stroke-width="1.33333" stroke-linecap="round" stroke-linejoin="round"/>
</svg>