<svg width="22" height="23" viewBox="0 0 22 23" fill="none" xmlns="http://www.w3.org/2000/svg">
<path d="M14.6667 19.75V17.9167C14.6667 16.9442 14.2804 16.0116 13.5928 15.3239C12.9051 14.6363 11.9725 14.25 11 14.25H5.50004C4.52758 14.25 3.59495 14.6363 2.90732 15.3239C2.21968 16.0116 1.83337 16.9442 1.83337 17.9167V19.75" stroke="#A1A1AA" stroke-width="1.5" stroke-linecap="round" stroke-linejoin="round"/>
<path d="M8.25004 10.5833C10.2751 10.5833 11.9167 8.94171 11.9167 6.91667C11.9167 4.89162 10.2751 3.25 8.25004 3.25C6.225 3.25 4.58337 4.89162 4.58337 6.91667C4.58337 8.94171 6.225 10.5833 8.25004 10.5833Z" stroke="#A1A1AA" stroke-width="1.5" stroke-linecap="round" stroke-linejoin="round"/>
<path d="M17.4167 12.4167C18.4292 12.4167 19.25 11.5959 19.25 10.5833C19.25 9.57081 18.4292 8.75 17.4167 8.75C16.4042 8.75 15.5834 9.57081 15.5834 10.5833C15.5834 11.5959 16.4042 12.4167 17.4167 12.4167Z" stroke="#A1A1AA" stroke-width="1.5" stroke-linecap="round" stroke-linejoin="round"/>
<path d="M17.4166 7.83334V8.75" stroke="#A1A1AA" stroke-width="1.5" stroke-linecap="round" stroke-linejoin="round"/>
<path d="M17.4166 12.4167V13.3333" stroke="#A1A1AA" stroke-width="1.5" stroke-linecap="round" stroke-linejoin="round"/>
<path d="M19.7999 9.20834L19.0024 9.66667" stroke="#A1A1AA" stroke-width="1.5" stroke-linecap="round" stroke-linejoin="round"/>
<path d="M15.8308 11.5L15.0333 11.9583" stroke="#A1A1AA" stroke-width="1.5" stroke-linecap="round" stroke-linejoin="round"/>
<path d="M19.7999 11.9583L19.0024 11.5" stroke="#A1A1AA" stroke-width="1.5" stroke-linecap="round" stroke-linejoin="round"/>
<path d="M15.8308 9.66667L15.0333 9.20834" stroke="#A1A1AA" stroke-width="1.5" stroke-linecap="round" stroke-linejoin="round"/>
</svg>
