<svg width="22" height="23" viewBox="0 0 22 23" fill="none" xmlns="http://www.w3.org/2000/svg">
<path d="M3.66663 20.6667H16.5C16.9862 20.6667 17.4525 20.4735 17.7963 20.1297C18.1401 19.7859 18.3333 19.3196 18.3333 18.8333V7.375L13.2916 2.33333H5.49996C5.01373 2.33333 4.54741 2.52649 4.2036 2.8703C3.85978 3.21412 3.66663 3.68044 3.66663 4.16667V7.83333" stroke="#A1A1AA" stroke-width="1.5" stroke-linecap="round" stroke-linejoin="round"/>
<path d="M12.8334 2.33333V7.83333H18.3334" stroke="#A1A1AA" stroke-width="1.5" stroke-linecap="round" stroke-linejoin="round"/>
<path d="M3.66671 11.5C3.42359 11.5 3.19043 11.5966 3.01853 11.7685C2.84662 11.9404 2.75004 12.1736 2.75004 12.4167V13.3333C2.75004 13.5764 2.65346 13.8096 2.48156 13.9815C2.30965 14.1534 2.07649 14.25 1.83337 14.25C2.07649 14.25 2.30965 14.3466 2.48156 14.5185C2.65346 14.6904 2.75004 14.9236 2.75004 15.1667V16.0833C2.75004 16.3264 2.84662 16.5596 3.01853 16.7315C3.19043 16.9034 3.42359 17 3.66671 17" stroke="#A1A1AA" stroke-width="1.5" stroke-linecap="round" stroke-linejoin="round"/>
<path d="M7.33337 17C7.57649 17 7.80965 16.9034 7.98156 16.7315C8.15346 16.5596 8.25004 16.3264 8.25004 16.0833V15.1667C8.25004 14.9236 8.34662 14.6904 8.51853 14.5185C8.69043 14.3466 8.92359 14.25 9.16671 14.25C8.92359 14.25 8.69043 14.1534 8.51853 13.9815C8.34662 13.8096 8.25004 13.5764 8.25004 13.3333V12.4167C8.25004 12.1736 8.15346 11.9404 7.98156 11.7685C7.80965 11.5966 7.57649 11.5 7.33337 11.5" stroke="#A1A1AA" stroke-width="1.5" stroke-linecap="round" stroke-linejoin="round"/>
</svg>
