<svg xmlns="http://www.w3.org/2000/svg" width="112" height="112" viewBox="0 0 112 112" fill="none">
  <path d="M90.3224 77.3277C102.169 58.4146 96.4399 33.4792 77.5267 21.6329C58.6136 9.78664 33.6782 15.5155 21.8319 34.4286C9.98562 53.3418 15.7145 78.2772 34.6276 90.1235C53.5408 101.97 78.4762 96.2409 90.3224 77.3277Z" fill="url(#paint0_linear_28_2730)"/>
  <path d="M58.4928 94.5246C79.836 93.1912 96.0571 74.8081 94.7237 53.4649C93.3902 32.1216 75.0072 15.9005 53.6639 17.2339C32.3207 18.5674 16.0995 36.9505 17.433 58.2937C18.7664 79.637 37.1495 95.8581 58.4928 94.5246Z" fill="url(#paint1_linear_28_2730)"/>
  <path style="mix-blend-mode:overlay" opacity="0.5" d="M70.3815 90.077C89.2679 82.1778 98.1748 60.4638 90.2756 41.5774C82.3764 22.691 60.6624 13.7841 41.776 21.6833C22.8896 29.5825 13.9827 51.2965 21.8819 70.1829C29.781 89.0693 51.4951 97.9762 70.3815 90.077Z" fill="url(#paint2_radial_28_2730)"/>
  <g style="mix-blend-mode:overlay" opacity="0.5">
    <path d="M56.0777 90.9973C56.0777 90.0023 55.3058 89.1661 54.3122 89.1141C36.7529 88.1957 22.7972 73.6666 22.7972 55.8788C22.7972 38.091 36.7529 23.5618 54.3122 22.6435C55.3058 22.5915 56.0777 21.7552 56.0777 20.7603C56.0777 19.6695 55.158 18.8072 54.0686 18.8647C34.5303 19.9076 19.0103 36.0805 19.0103 55.8788C19.0103 75.6771 34.5317 91.8499 54.0686 92.8928C55.1566 92.9517 56.0777 92.0881 56.0777 90.9973Z" fill="white"/>
  </g>
  <path d="M56.0782 88.0781C73.8614 88.0781 88.2775 73.662 88.2775 55.8788C88.2775 38.0956 73.8614 23.6795 56.0782 23.6795C38.295 23.6795 23.8789 38.0956 23.8789 55.8788C23.8789 73.662 38.295 88.0781 56.0782 88.0781Z" fill="white"/>
  <path fill-rule="evenodd" clip-rule="evenodd" d="M59.9582 67.4482C59.6494 68.027 59.3402 68.5486 59.0446 69.0107C62.1851 68.3045 64.9102 66.5006 66.7958 64.0232C65.5513 63.3223 63.9574 62.5958 62.0411 62.0642C61.4965 64.2003 60.7281 66.0045 59.9582 67.4482ZM57.5828 66.1813C58.2517 64.9274 58.922 63.3613 59.405 61.5057C58.3653 61.3514 57.2554 61.2623 56.0783 61.2623C54.9013 61.2623 53.7914 61.3514 52.7519 61.5055C53.2349 63.3613 53.9052 64.9274 54.5741 66.1813C55.1104 67.1869 55.6446 67.9897 56.0784 68.5771C56.5122 67.9897 57.0465 67.1869 57.5828 66.1813ZM60.1166 55.8782C60.1166 56.9265 60.046 57.9215 59.9217 58.8608C58.7222 58.6769 57.4399 58.5703 56.0783 58.5703C54.7168 58.5703 53.4344 58.6767 52.2352 58.8608C52.1108 57.9213 52.0403 56.9265 52.0403 55.8782C52.0403 54.8299 52.1108 53.8351 52.2352 52.8955C53.4344 53.0795 54.7168 53.1861 56.0783 53.1861C57.4399 53.1861 58.7222 53.0795 59.9217 52.8955C60.046 53.8349 60.1166 54.8299 60.1166 55.8782ZM62.563 52.3404C62.7193 53.4513 62.8087 54.6316 62.8087 55.8782C62.8087 57.1248 62.7193 58.305 62.563 59.4159C64.8486 60.0296 66.7412 60.8948 68.205 61.7274C69.0597 59.9587 69.5389 57.9744 69.5389 55.8782C69.5389 53.7819 69.0597 51.7978 68.205 50.0289C66.7414 50.8614 64.8487 51.7267 62.563 52.3404ZM59.405 50.2507C58.3653 50.405 57.2554 50.494 56.0783 50.494C54.9013 50.494 53.7914 50.405 52.7519 50.2508C53.2349 48.3952 53.9052 46.829 54.5741 45.575C55.1104 44.5695 55.6446 43.7666 56.0784 43.1793C56.5122 43.7666 57.0465 44.5695 57.5828 45.575C58.2517 46.829 58.922 48.3951 59.405 50.2507ZM49.5939 52.3406C49.4376 53.4515 49.3482 54.6317 49.3482 55.8782C49.3482 57.1248 49.4376 58.3048 49.5939 59.4158C47.3083 60.0295 45.4156 60.8948 43.9518 61.7274C43.0972 59.9585 42.618 57.9742 42.618 55.8782C42.618 53.7821 43.0972 51.7978 43.9518 50.029C45.4154 50.8615 47.3081 51.7268 49.5939 52.3406ZM45.3611 47.7333C46.6057 48.4342 48.1996 49.1606 50.1156 49.6923C50.6603 47.5561 51.4287 45.7518 52.1986 44.3082C52.5075 43.7293 52.8167 43.2079 53.1123 42.7456C49.9717 43.4519 47.2466 45.2558 45.3611 47.7333ZM62.0411 49.6922C63.9573 49.1605 65.5512 48.4341 66.7958 47.7332C64.9102 45.2558 62.1851 43.4519 59.0448 42.7456C59.3402 43.2079 59.6494 43.7292 59.9582 44.3081C60.7281 45.7517 61.4965 47.5561 62.0411 49.6922ZM50.1156 62.0641C50.6603 64.2003 51.4287 66.0045 52.1986 67.4482C52.5075 68.027 52.8167 68.5486 53.1123 69.0107C49.9717 68.3045 47.2466 66.5004 45.3609 64.023C46.6055 63.3222 48.1994 62.5958 50.1156 62.0641ZM56.0784 72.0307C47.1576 72.0307 39.9259 64.799 39.9259 55.8782C39.9259 46.9574 47.1576 39.7256 56.0784 39.7256C64.9992 39.7256 72.231 46.9574 72.231 55.8782C72.231 64.799 64.9992 72.0307 56.0784 72.0307Z" fill="#0096C3"/>
  <defs>
    <linearGradient id="paint0_linear_28_2730" x1="56.0767" y1="95.6697" x2="56.0767" y2="14.206" gradientUnits="userSpaceOnUse">
      <stop stop-color="#00DAF8"/>
      <stop offset="0.998" stop-color="#008FC4"/>
    </linearGradient>
    <linearGradient id="paint1_linear_28_2730" x1="56.0786" y1="17.6632" x2="56.0786" y2="93.543" gradientUnits="userSpaceOnUse">
      <stop stop-color="#00DAF8"/>
      <stop offset="0.998" stop-color="#008FC4"/>
    </linearGradient>
    <radialGradient id="paint2_radial_28_2730" cx="0" cy="0" r="1" gradientUnits="userSpaceOnUse" gradientTransform="translate(56.0792 18.2787) scale(52.2056)">
      <stop stop-color="#F2F2F2"/>
      <stop offset="1" stop-color="white" stop-opacity="0"/>
    </radialGradient>
  </defs>
</svg>