<svg xmlns="http://www.w3.org/2000/svg" width="106" height="107" viewBox="0 0 106 107" fill="none">
  <path d="M90.2541 69.1386C98.8717 48.5527 89.1695 24.8786 68.5836 16.261C47.9978 7.64344 24.3237 17.3456 15.7061 37.9315C7.08849 58.5174 16.7907 82.1915 37.3766 90.8091C57.9624 99.4267 81.6365 89.7244 90.2541 69.1386Z" fill="url(#paint0_linear_28_2744)"/>
  <path d="M56.4151 92.1028C77.7157 90.2062 93.4458 71.4013 91.5493 50.1007C89.6527 28.8001 70.8478 13.07 49.5472 14.9665C28.2466 16.863 12.5164 35.668 14.413 56.9686C16.3095 78.2692 35.1145 93.9993 56.4151 92.1028Z" fill="url(#paint1_linear_28_2744)"/>
  <path style="mix-blend-mode:overlay" opacity="0.5" d="M63.7995 88.993C83.3803 83.0193 94.4109 62.3032 88.4372 42.7224C82.4634 23.1416 61.7474 12.1109 42.1666 18.0847C22.5858 24.0584 11.5551 44.7745 17.5288 64.3553C23.5026 83.9361 44.2187 94.9668 63.7995 88.993Z" fill="url(#paint2_radial_28_2744)"/>
  <g style="mix-blend-mode:overlay" opacity="0.5">
    <path d="M52.9815 16.4684C32.5098 16.4684 15.9141 33.0642 15.9141 53.5359C15.9141 74.0075 32.5098 90.6033 52.9815 90.6033C73.4532 90.6033 90.0489 74.0075 90.0489 53.5359C90.0489 33.0642 73.4532 16.4684 52.9815 16.4684ZM52.9815 86.8163C34.6011 86.8163 19.701 71.9163 19.701 53.5345C19.701 35.1527 34.6011 20.254 52.9815 20.254C71.3619 20.254 86.2633 35.1541 86.2633 53.5345C86.2633 71.9149 71.3633 86.8163 52.9815 86.8163Z" fill="white"/>
  </g>
  <path d="M52.982 85.7351C70.7652 85.7351 85.1813 71.319 85.1813 53.5358C85.1813 35.7527 70.7652 21.3366 52.982 21.3366C35.1988 21.3366 20.7827 35.7527 20.7827 53.5358C20.7827 71.319 35.1988 85.7351 52.982 85.7351Z" fill="white"/>
  <path d="M64.4354 41.8602C64.7255 42.0724 64.8446 42.3529 64.7912 42.7047L61.4148 62.9697C61.371 63.2256 61.2301 63.424 60.9919 63.5636C60.8688 63.6334 60.7319 63.669 60.5841 63.669C60.4856 63.669 60.3802 63.6458 60.2666 63.602L54.2899 61.1617L51.0955 65.0541C50.9381 65.2566 50.7219 65.3565 50.4495 65.3565C50.3359 65.3565 50.2401 65.3387 50.1608 65.3045C49.9938 65.2429 49.8583 65.1389 49.757 64.9952C49.6571 64.8488 49.6065 64.6886 49.6065 64.5148V59.9081L61.0043 45.9373L46.9007 58.1412L41.6891 56.0034C41.3633 55.8803 41.1881 55.638 41.1621 55.2781C41.1443 54.9263 41.2853 54.6663 41.5837 54.4993L63.5389 41.8328C63.6703 41.7535 63.8099 41.7138 63.9604 41.7138C64.137 41.7138 64.2958 41.7644 64.4354 41.8602Z" fill="#0096C3"/>
  <defs>
    <linearGradient id="paint0_linear_28_2744" x1="52.9797" y1="93.3278" x2="52.9797" y2="11.864" gradientUnits="userSpaceOnUse">
      <stop stop-color="#00DAF8"/>
      <stop offset="0.998" stop-color="#008FC4"/>
    </linearGradient>
    <linearGradient id="paint1_linear_28_2744" x1="52.9807" y1="15.3193" x2="52.9807" y2="91.1991" gradientUnits="userSpaceOnUse">
      <stop stop-color="#00DAF8"/>
      <stop offset="0.998" stop-color="#008FC4"/>
    </linearGradient>
    <radialGradient id="paint2_radial_28_2744" cx="0" cy="0" r="1" gradientUnits="userSpaceOnUse" gradientTransform="translate(52.9831 15.9359) scale(52.2056)">
      <stop stop-color="#F2F2F2"/>
      <stop offset="1" stop-color="white" stop-opacity="0"/>
    </radialGradient>
  </defs>
</svg>