<svg xmlns="http://www.w3.org/2000/svg" width="106" height="106" viewBox="0 0 106 106" fill="none">
  <path d="M68.3348 90.1043C89.015 81.7157 98.9794 58.1508 90.5909 37.4705C82.2023 16.7903 58.6374 6.82589 37.9571 15.2144C17.2769 23.603 7.31247 47.1679 15.701 67.8482C24.0896 88.5284 47.6545 98.4928 68.3348 90.1043Z" fill="url(#paint0_linear_28_2751)"/>
  <path d="M59.3764 90.8734C80.4834 87.4325 94.8046 67.5325 91.3637 46.4255C87.9228 25.3185 68.0228 10.9974 46.9158 14.4382C25.8088 17.8791 11.4876 37.7791 14.9285 58.8861C18.3694 79.9931 38.2694 94.3143 59.3764 90.8734Z" fill="url(#paint1_linear_28_2751)"/>
  <path style="mix-blend-mode:overlay" opacity="0.5" d="M68.9473 86.1899C87.4659 77.4631 95.4036 55.3764 86.6768 36.8578C77.95 18.3393 55.8633 10.4015 37.3448 19.1283C18.8262 27.8551 10.8884 49.9418 19.6152 68.4604C28.342 86.9789 50.4288 94.9167 68.9473 86.1899Z" fill="url(#paint2_radial_28_2751)"/>
  <g style="mix-blend-mode:overlay" opacity="0.5">
    <path d="M51.368 85.8942C33.0423 84.9293 18.6459 69.1424 19.9447 50.2994C21.0765 33.8884 34.3712 20.5923 50.7836 19.4591C69.628 18.159 85.4162 32.5554 86.3797 50.881C86.4317 51.8801 87.2639 52.6589 88.263 52.6589C89.3537 52.6589 90.2173 51.7378 90.1585 50.647C89.0677 30.252 71.4906 14.2338 50.514 15.6818C32.2362 16.9436 17.4278 31.752 16.1673 50.0298C14.7221 71.0051 30.7389 88.5808 51.1326 89.6715C52.222 89.7304 53.1444 88.8668 53.1444 87.776C53.1444 86.7756 52.3657 85.9448 51.3666 85.8928L51.368 85.8942Z" fill="white"/>
  </g>
  <path d="M53.1466 84.8582C70.9297 84.8582 85.3458 70.4421 85.3458 52.6589C85.3458 34.8757 70.9297 20.4596 53.1466 20.4596C35.3634 20.4596 20.9473 34.8757 20.9473 52.6589C20.9473 70.4421 35.3634 84.8582 53.1466 84.8582Z" fill="white"/>
  <path d="M38.2314 39.2897L49.8908 56.9954L38.4784 70.7664H41.0069L51.0075 58.6909L58.9595 70.7664H68.5128L56.3316 52.2696L67.0808 39.2897H64.5601L55.2133 50.5693L47.7847 39.2897H38.2314ZM41.2507 40.9464H46.9476L65.4935 69.1097H59.7966L41.2507 40.9464Z" fill="#008FC4"/>
  <defs>
    <linearGradient id="paint0_linear_28_2751" x1="53.146" y1="92.4508" x2="53.146" y2="10.9856" gradientUnits="userSpaceOnUse">
      <stop stop-color="#00DAF8"/>
      <stop offset="0.998" stop-color="#008FC4"/>
    </linearGradient>
    <linearGradient id="paint1_linear_28_2751" x1="53.1452" y1="14.4429" x2="53.1452" y2="90.3227" gradientUnits="userSpaceOnUse">
      <stop stop-color="#00DAF8"/>
      <stop offset="0.998" stop-color="#008FC4"/>
    </linearGradient>
    <radialGradient id="paint2_radial_28_2751" cx="0" cy="0" r="1" gradientUnits="userSpaceOnUse" gradientTransform="translate(53.1457 15.0592) scale(52.2056)">
      <stop stop-color="#F2F2F2"/>
      <stop offset="1" stop-color="white" stop-opacity="0"/>
    </radialGradient>
  </defs>
</svg>