<svg width="46" height="46" viewBox="0 0 46 46" fill="none" xmlns="http://www.w3.org/2000/svg">
<g id="telegram-svgrepo-com (6) 1">
<path id="Vector" d="M7.79549 21.3898C7.79549 21.3898 21.192 15.9086 25.8382 13.9786C27.6191 13.2067 33.6592 10.7362 33.6592 10.7362C33.6592 10.7362 36.4469 9.65564 36.2146 12.2802C36.137 13.361 35.5175 17.1437 34.898 21.2352C33.9689 27.0252 32.9622 33.3553 32.9622 33.3553C32.9622 33.3553 32.8074 35.1309 31.4911 35.4398C30.1745 35.7486 28.0064 34.359 27.6191 34.0501C27.3095 33.8185 21.8115 30.3446 19.7983 28.6463C19.2562 28.1832 18.6367 27.2567 19.8757 26.1759C22.6633 23.6285 25.9931 20.4633 28.0064 18.4562C28.9355 17.5297 29.8649 15.3681 25.9931 17.9928C20.4952 21.7755 15.0746 25.3268 15.0746 25.3268C15.0746 25.3268 13.8358 26.0987 11.5127 25.4039C9.18962 24.7091 6.47933 23.7828 6.47933 23.7828C6.47933 23.7828 4.62103 22.6247 7.7959 21.3898H7.79549Z" stroke="white"/>
</g>
</svg>
