<svg width="73" height="73" viewBox="0 0 73 73" fill="none" xmlns="http://www.w3.org/2000/svg">
<g id="internet-3-svgrepo-com 1">
<g id="Group">
<path id="Vector" d="M37.4406 45.764C37.2218 45.9421 37.0019 46.082 36.7806 46.1877C36.6303 46.2038 36.479 46.2155 36.3269 46.2244V44.4608C35.9632 44.1631 35.5974 43.854 35.2304 43.5364V46.2248C35.0784 46.2155 34.9271 46.2037 34.7772 46.1876C34.5558 46.082 34.3356 45.942 34.1168 45.764C33.4037 45.1836 32.7362 44.2038 32.2244 42.9428H34.5551C34.1579 42.5877 33.7603 42.2218 33.3627 41.8464H31.8411C31.6593 41.242 31.5131 40.5903 31.4017 39.9068C30.9687 39.4588 30.5483 39.0098 30.1399 38.5615C30.2316 39.7287 30.4197 40.8359 30.6999 41.8464H27.8991C27.1149 40.5789 26.6288 39.1098 26.5367 37.5314H29.2254C28.9078 37.1645 28.5986 36.7986 28.3013 36.4349H26.5367C26.5745 35.7882 26.682 35.1614 26.8451 34.5578C26.4728 34.0499 26.1237 33.5495 25.8018 33.0594C25.3232 34.2751 25.0573 35.5979 25.0573 36.9835C25.0576 42.905 29.8569 47.7039 35.7784 47.7043C37.1636 47.7043 38.4864 47.4384 39.7017 46.9601C39.0489 46.5307 38.3771 46.0535 37.694 45.5363C37.6101 45.6173 37.5259 45.6944 37.4406 45.764ZM29.2312 43.5308C29.0434 43.343 28.865 43.146 28.694 42.9429H31.0558C31.2317 43.4226 31.4252 43.8795 31.6418 44.2992C31.8971 44.7925 32.1798 45.2411 32.4885 45.6388C31.2557 45.1701 30.1485 44.4473 29.2312 43.5308Z" fill="white"/>
<path id="Vector_2" d="M27.9841 29.6262C28.2182 30.0456 28.4845 30.4825 28.7775 30.9325C28.9239 30.7626 29.0724 30.5949 29.2312 30.436C30.1503 29.5176 31.26 28.7934 32.4956 28.3248C31.9213 29.0622 31.4384 29.977 31.054 31.0236H28.8358C29.0706 31.3812 29.3236 31.7474 29.5917 32.12H30.7028C30.6018 32.4837 30.5151 32.8621 30.4369 33.249C30.7307 33.6266 31.038 34.0085 31.3578 34.3933C31.4731 33.5873 31.6351 32.8217 31.8465 32.12H35.2305V36.4349H33.1474C33.4862 36.8015 33.8331 37.1673 34.1883 37.5314H35.2305V38.5737C35.5946 38.9284 35.9604 39.2761 36.327 39.6144V37.5314H40.3782C40.3332 39.1054 40.0944 40.5746 39.7114 41.8463H38.9087C39.4355 42.2707 39.9555 42.6701 40.4642 43.0409C40.4767 43.0074 40.4913 42.9767 40.5038 42.9428H42.8635C42.6922 43.1459 42.5141 43.3429 42.3263 43.5307C42.1678 43.6891 42.0015 43.8397 41.8316 43.986C42.281 44.2787 42.7171 44.5443 43.1355 44.7785C45.206 42.8239 46.5002 40.0556 46.5002 36.9835C46.4998 31.0621 41.7002 26.2625 35.7784 26.2621C32.7063 26.2625 29.9386 27.5564 27.9841 29.6262ZM43.6583 41.8464H40.8546C41.2165 40.5418 41.4357 39.082 41.4782 37.5315H45.0207C44.9286 39.1098 44.4425 40.5789 43.6583 41.8464ZM43.6576 32.12C44.4421 33.3875 44.9282 34.857 45.0207 36.4349H41.4746C41.4317 34.8859 41.219 33.4239 40.8571 32.12H43.6576ZM42.3258 30.436C42.5136 30.6238 42.6917 30.8205 42.8627 31.0236H40.5016C40.3257 30.5442 40.1318 30.0873 39.9155 29.6676C39.6603 29.1747 39.3776 28.726 39.0692 28.328C40.3017 28.7967 41.4086 29.5198 42.3258 30.436ZM36.3269 27.7419C36.4793 27.7512 36.6307 27.763 36.7809 27.7791C37.0023 27.8844 37.2217 28.0243 37.4406 28.2024C38.1537 28.7824 38.8208 29.7625 39.3327 31.0235H36.3269V27.7419ZM36.3269 32.12H39.716C40.099 33.3914 40.3363 34.8623 40.3817 36.4349H36.3269V32.12ZM34.1168 28.2024C34.3356 28.0243 34.5552 27.8844 34.7765 27.7787C34.9267 27.7626 35.0781 27.7509 35.2304 27.7416V31.0236H32.2304C32.3514 30.7248 32.4785 30.4364 32.6159 30.1709C33.0564 29.3171 33.5747 28.6453 34.1168 28.2024Z" fill="white"/>
<path id="Vector_3" d="M47.587 44.3487C47.365 43.7501 47.0566 43.1031 46.679 42.417C46.421 42.9317 46.1283 43.4268 45.8027 43.8972C45.968 44.2388 46.1065 44.56 46.2161 44.8563C46.4392 45.4541 46.5398 45.9527 46.538 46.2861C46.538 46.4443 46.5169 46.5631 46.4894 46.6431C46.4616 46.7234 46.4324 46.7652 46.3988 46.7998C46.3649 46.8326 46.3235 46.8615 46.2428 46.8897C46.1632 46.9168 46.0444 46.9379 45.8862 46.9379C45.5714 46.9393 45.1089 46.8504 44.5552 46.6523C44.0006 46.4557 43.3535 46.1548 42.6436 45.76C40.2097 44.4073 37.0483 41.9509 33.9313 38.8317C30.8121 35.7146 28.3557 32.5533 27.0025 30.119C26.6078 29.409 26.3073 28.7623 26.1102 28.2076C25.9125 27.654 25.8232 27.1915 25.8247 26.8766C25.8247 26.7181 25.8461 26.5993 25.8732 26.52C25.9011 26.4394 25.93 26.3983 25.9632 26.3641C25.9982 26.3302 26.0395 26.3009 26.1202 26.2731C26.1998 26.2459 26.3187 26.2245 26.4775 26.2245C26.8105 26.2228 27.3092 26.3234 27.906 26.5458C28.2033 26.6557 28.526 26.7949 28.8694 26.9605C29.3398 26.635 29.8337 26.3423 30.3488 26.0843C29.6614 25.7055 29.0129 25.3968 28.4132 25.1748C27.7115 24.9167 27.0744 24.7646 26.4776 24.7625C26.1937 24.7629 25.9167 24.7986 25.6512 24.8882C25.3864 24.9774 25.1336 25.1252 24.9291 25.3308C24.7242 25.5346 24.5768 25.787 24.4883 26.0514C24.3987 26.3166 24.363 26.5933 24.3627 26.8767C24.3645 27.4406 24.5004 28.0399 24.7328 28.697C24.9662 29.3534 25.3006 30.0659 25.725 30.8297C27.1792 33.4392 29.7006 36.6669 32.8975 39.8653C36.096 43.0624 39.3238 45.5837 41.9329 47.0379C42.6971 47.4622 43.4095 47.7967 44.0659 48.0301C44.723 48.2622 45.3223 48.3981 45.8862 48.3999C46.1696 48.3999 46.4463 48.3639 46.7115 48.2746C46.9756 48.1858 47.228 48.0387 47.4321 47.8338C47.6377 47.629 47.7855 47.3762 47.8744 47.1121C47.9639 46.8466 47.9997 46.5696 48 46.2862C47.9979 45.6887 47.8458 45.0512 47.587 44.3487Z" fill="white"/>
</g>
</g>
</svg>
